# xmcd
#
# Track frame offsets: 
#        150
#        33903
#        55689
#        78423
#        90199
#        119600
#        133865
#        153782
#        161106
#        192493
#        201211
#
# Disc length: 2933 seconds
#
# Revision: 0
# Processed by: cddbd v1.5.2PL0 Copyright (c) Steve Scherf et al.
# Submitted via: ExactAudioCopy v0.99pb4
#
DISCID=8b0b730b
DTITLE=World On A String - Second Outlet
DYEAR=2009
DGENRE=Blues
TTITLE0=Happy Day
TTITLE1=Sooth
TTITLE2=Mama's Cooking
TTITLE3=Interlude Part 1
TTITLE4=Flow
TTITLE5=Interlude Part2
TTITLE6=The Dancer And The Devil
TTITLE7=Interlude Part 3
TTITLE8=Epic
TTITLE9=Interlude Part 4
TTITLE10=Chinese Tea
EXTD=
EXTT0=
EXTT1=
EXTT2=
EXTT3=
EXTT4=
EXTT5=
EXTT6=
EXTT7=
EXTT8=
EXTT9=
EXTT10=
PLAYORDER=
